<?xml version="1.0" encoding="utf-8"?>
<!-- Generator: Adobe Illustrator 16.0.0, SVG Export Plug-In . SVG Version: 6.00 Build 0)  -->
<!DOCTYPE svg PUBLIC "-//W3C//DTD SVG 1.1//EN" "http://www.w3.org/Graphics/SVG/1.1/DTD/svg11.dtd">
<svg version="1.1" id="Слой_1" xmlns="http://www.w3.org/2000/svg" xmlns:xlink="http://www.w3.org/1999/xlink" x="0px" y="0px"
	 width="100px" height="28.088px" viewBox="0 0 100 28.088" enable-background="new 0 0 100 28.088" xml:space="preserve">
<linearGradient id="SVGID_1_" gradientUnits="userSpaceOnUse" x1="262" y1="517.0439" x2="362.0098" y2="517.0439" gradientTransform="matrix(1 0 0 1 -262 -503)">
	<stop  offset="0" style="stop-color:#00707F"/>
	<stop  offset="1" style="stop-color:#03A678"/>
</linearGradient>
<path fill="url(#SVGID_1_)" d="M80.051,3.047c0.284-1.618,1.836-2.937,3.458-2.937c1.618,0,2.779,1.319,2.495,2.937
	c-0.287,1.62-1.927,3.014-3.546,3.014C80.837,6.062,79.764,4.668,80.051,3.047z M100.01,13.819c0,2.147-0.676,5.048-1.959,7.572
	c-0.505,1.021-1.172,2.067-1.73,2.673c-1.956,2.124-4.369,3.839-7.57,3.839c-2.728,0-4.711-1.14-5.711-3.136
	c-1.886,1.912-3.94,3.136-6.121,3.136c-1.646,0-3.025-0.624-3.662-2.086c-1.575,1.305-3.275,2.086-5.122,2.086
	c-3.651,0-5.31-2.748-2.635-9.414l0.865-2.186c0.754-1.807,1.319-3.239,1.319-3.803c0-0.49-0.417-0.792-0.979-0.792
	c-0.98,0-2.711,0.83-4.332,2.676c0,0-4.002,10.188-4.77,12.026c-0.769,1.835-6.146,2.178-5.31,0
	c0.041-0.112,0.096-0.252,0.158-0.418c-1.964,1.17-4.253,1.91-6.891,1.91c-3.714,0-5.975-1.453-6.782-3.98
	c-2.477,2.299-5.659,3.98-9.638,3.98c-4.746,0-7.118-2.372-7.118-6.327c0-0.646,0.062-1.348,0.186-2.088
	c-0.009,0-0.017-0.001-0.026-0.001c-3.259,5.271-7.939,8.602-13.372,8.602C3.968,28.088,0,24.633,0,19.402
	C-0.001,7.379,10.726,0,16.297,0c4.028,0,5.915,3.083,5.915,6.481c0,1.138-0.25,2.376-0.754,3.617
	c-0.85,2.083-7.274,1.83-6.14,0.053c0.723-1.175,1.201-2.613,1.201-3.262c0-0.63-0.222-1.322-1.134-1.322
	c-2.139,0-9.851,4.105-9.851,13.809c0,2.71,1.922,4.577,4.659,4.577c2.22,0,5.089-0.601,7.874-4.47
	c-3.105,0.194-4.953,0.781-6.074,0.724c-1.647-0.126-0.779-4.453,1.068-4.588c1.137-0.071,2.361-0.95,10.059,0.535
	c1.659-4.399,5.175-8.774,10.389-8.774c4.067,0,7.117,2.939,4.745,8.06c-1.656,3.653-4.782,5.422-11.034,4.671
	c0,0-1.433,4.481,3.352,4.481c2.685,0,5.52-1.417,7.909-3.947c0.435-5.242,4.386-13.266,11.447-13.266
	c4.067,0,7.118,2.939,4.745,8.06c-1.655,3.653-4.783,5.423-11.035,4.671c0,0-1.431,4.48,3.351,4.48c2.432,0,4.987-1.161,7.222-3.26
	c1.745-4.632,4.075-10.811,4.732-12.457c0.995-2.49,6.259-2.037,5.39-0.021c-0.87,2.018-0.117,1.013-0.117,1.013
	c0.752-0.715,3.238-2.485,5.839-2.485c2.146,0,3.388,1.168,3.388,3.164c0,1.054-0.376,2.41-1.168,4.368l-1.956,4.897
	c-1.771,4.331-0.943,4.783-0.302,4.783c0.784,0,1.797-0.667,2.93-1.854c0.137-1.153,0.502-2.522,1.146-4.135
	c0,0,3.021-7.742,3.868-9.729c0.847-1.987,6.088-1.923,5.312,0c-0.775,1.923-4.319,10.935-4.319,10.935
	c-1.692,4.217-1.016,4.782-0.3,4.782c0.945,0,2.246-0.97,3.677-2.646c-0.011-0.193-0.02-0.391-0.02-0.592
	c0-4.971,3.726-13.972,11.372-13.972C97.638,7.379,100.01,9.714,100.01,13.819z M44.543,17.247c3.502,0.565,4.784-1.093,5.575-3.012
	c0.713-1.545,0.827-2.599-0.492-2.599C46.69,11.636,44.543,17.247,44.543,17.247z M28.124,17.247
	c3.502,0.565,4.784-1.093,5.575-3.012c0.715-1.545,0.828-2.599-0.49-2.599C30.27,11.636,28.124,17.247,28.124,17.247z
	 M95.037,12.915c0-1.468-0.677-2.032-1.468-2.032c-3.089,0-6.289,8.399-6.289,11.413c0,1.317,0.603,2.109,1.542,2.109
	c0.979,0,2.033-0.906,2.938-2.223c0.763-1.024,1.645-3.242,2.259-4.708C94.66,15.74,95.037,14.009,95.037,12.915z"/>
</svg>
